<svg width="32" height="32" viewBox="0 0 32 32" fill="none" xmlns="http://www.w3.org/2000/svg">
<path d="M18.7111 9C17.9214 9 17.1494 8.76625 16.4923 8.3282L12.5077 5.6718C11.8506 5.23375 11.0786 5 10.2889 5H1.5C0.671575 5 1.7324e-06 5.67158 3.8147e-06 6.5L5.15723e-05 25.5C5.36546e-05 26.3284 0.671626 27 1.50005 27H26.5C27.3284 27 28 26.3284 28 25.5V10.5C28 9.67157 27.3284 9 26.5 9H18.7111ZM13.4504 8.63359C13.615 8.74336 13.5373 9 13.3394 9H2.8C2.35817 9 2 8.64183 2 8.2V7.8C2 7.35817 2.35817 7 2.8 7H10.3944C10.7893 7 11.1753 7.11688 11.5038 7.3359L13.4504 8.63359Z" fill="#8D6E63"/>
<path d="M21.8679 22L17 18.4095V13H18.8113V17.6081L23 20.696L21.8679 22Z" fill="#D7CCC8"/>
<path d="M19 26C17.4178 26 15.871 25.5308 14.5554 24.6518C13.2398 23.7727 12.2145 22.5233 11.609 21.0615C11.0035 19.5997 10.845 17.9911 11.1537 16.4393C11.4624 14.8874 12.2243 13.462 13.3431 12.3431C14.462 11.2243 15.8874 10.4624 17.4393 10.1537C18.9911 9.84504 20.5997 10.0035 22.0615 10.609C23.5233 11.2145 24.7727 12.2398 25.6518 13.5554C26.5308 14.871 27 16.4178 27 18C26.9977 20.121 26.1541 22.1545 24.6543 23.6543C23.1545 25.1541 21.121 25.9977 19 26ZM19 11.6C17.7342 11.6 16.4968 11.9754 15.4444 12.6786C14.3919 13.3818 13.5716 14.3814 13.0872 15.5508C12.6028 16.7203 12.476 18.0071 12.723 19.2486C12.9699 20.4901 13.5795 21.6304 14.4745 22.5255C15.3696 23.4205 16.5099 24.0301 17.7514 24.277C18.9929 24.524 20.2797 24.3972 21.4492 23.9128C22.6186 23.4284 23.6182 22.6081 24.3214 21.5557C25.0246 20.5032 25.4 19.2658 25.4 18C25.3979 16.3033 24.7229 14.6766 23.5231 13.4769C22.3234 12.2771 20.6967 11.6021 19 11.6Z" fill="#D7CCC8"/>
</svg>
