<svg xmlns="http://www.w3.org/2000/svg" viewBox="0 0 32 32"><path fill="#8bc34a" d="M12.5077 5.6718C11.8506 5.23375 11.0786 5 10.2889 5H1.5C0.671573 5 0 5.67157 0 6.5V25.5C0 26.3284 0.671573 27 1.5 27H26.6459C27.4637 27 28.1992 26.5021 28.5029 25.7428L31.3417 18.6457C31.657 17.8574 31.0765 17 30.2276 17H5.35406C4.53626 17 3.80084 17.4979 3.49711 18.2572L2 22V12C2 11.4477 2.44772 11 3 11H25C25.5523 11 26 11.4477 26 12V17H28V10.5C28 9.67157 27.3284 9 26.5 9H18.7111C17.9214 9 17.1494 8.76625 16.4923 8.3282L12.5077 5.6718ZM13.4504 8.63359C13.615 8.74336 13.5373 9 13.3394 9H2.8C2.35817 9 2 8.64183 2 8.2V7.8C2 7.35817 2.35817 7 2.8 7H10.3944C10.7893 7 11.1753 7.11688 11.5038 7.3359L13.4504 8.63359Z"/><path fill="#dcedc8" d="M26 14H16a4.533 4.533 0 0 0-4.498 3.971l-1.483 9.276A2.45 2.45 0 0 0 12.45 30a2.45 2.45 0 0 0 1.96-.98L17 26h8l2.59 3.02a2.45 2.45 0 0 0 1.96.98 2.45 2.45 0 0 0 2.43-2.753l-1.482-9.276A4.533 4.533 0 0 0 26 14Zm-1 2a1 1 0 1 1-1 1 1 1 0 0 1 1-1Zm-5 4h-2v2h-2v-2h-2v-2h2v-2h2v2h2Zm3 0a1 1 0 1 1 1-1 1 1 0 0 1-1 1Zm2 2a1 1 0 1 1 1-1 1 1 0 0 1-1 1Zm2-2a1 1 0 1 1 1-1 1 1 0 0 1-1 1Z"/></svg>