<svg width="32" height="32" viewBox="0 0 32 32" fill="none" xmlns="http://www.w3.org/2000/svg">
<path d="M18.7111 9C17.9214 9 17.1494 8.76625 16.4923 8.3282L12.5077 5.6718C11.8506 5.23375 11.0786 5 10.2889 5H1.5C0.671575 5 1.7324e-06 5.67158 3.8147e-06 6.5L5.15723e-05 25.5C5.36546e-05 26.3284 0.671626 27 1.50005 27H26.5C27.3284 27 28 26.3284 28 25.5V10.5C28 9.67157 27.3284 9 26.5 9H18.7111ZM13.4504 8.63359C13.615 8.74336 13.5373 9 13.3394 9H2.8C2.35817 9 2 8.64183 2 8.2V7.8C2 7.35817 2.35817 7 2.8 7H10.3944C10.7893 7 11.1753 7.11688 11.5038 7.3359L13.4504 8.63359Z" fill="#7E57C2"/>
<path d="M21 26H24L20 14H16L12 26H15L15.667 24H18.677L18 22H16.333L18 17L21 26Z" fill="#D1C4E9"/>
<path d="M25.1906 12.8186C25.0641 12.819 24.938 12.8332 24.8143 12.8609C23.0814 11.1411 20.8103 10.1293 18.4181 10.0116C16.0258 9.8938 13.673 10.6779 11.7918 12.2198C9.91053 13.7618 8.62709 15.958 8.17716 18.4054C7.72722 20.8527 8.14099 23.3867 9.34249 25.5421C9.46653 25.7568 9.66747 25.9114 9.90109 25.972C10.1347 26.0325 10.3819 25.994 10.5882 25.865C10.7946 25.7359 10.9432 25.5269 11.0014 25.2838C11.0596 25.0408 11.0226 24.7836 10.8985 24.5689C9.9244 22.815 9.58763 20.7557 9.94945 18.7653C10.3113 16.775 11.3476 14.9859 12.8701 13.7233C14.3926 12.4607 16.3001 11.8085 18.2456 11.8853C20.1912 11.9622 22.0457 12.7629 23.4718 14.1419C23.4143 14.3224 23.3838 14.511 23.3813 14.701C23.3813 15.0733 23.4874 15.4373 23.6862 15.7469C23.885 16.0564 24.1676 16.2977 24.4982 16.4402C24.8288 16.5827 25.1926 16.62 25.5436 16.5473C25.8946 16.4747 26.217 16.2954 26.47 16.0321C26.7231 15.7689 26.8954 15.4334 26.9652 15.0683C27.035 14.7031 26.9992 14.3246 26.8623 13.9806C26.7253 13.6367 26.4934 13.3427 26.1959 13.1358C25.8983 12.929 25.5485 12.8186 25.1906 12.8186Z" fill="#D1C4E9"/>
</svg>
