<svg xmlns="http://www.w3.org/2000/svg" viewBox="0 0 32 32"><path fill="#ffc107" d="M12.5077 5.6718C11.8506 5.23375 11.0786 5 10.2889 5H1.5C0.671573 5 0 5.67157 0 6.5V25.5C0 26.3284 0.671573 27 1.5 27H26.6459C27.4637 27 28.1992 26.5021 28.5029 25.7428L31.3417 18.6457C31.657 17.8574 31.0765 17 30.2276 17H5.35406C4.53626 17 3.80084 17.4979 3.49711 18.2572L2 22V12C2 11.4477 2.44772 11 3 11H25C25.5523 11 26 11.4477 26 12V17H28V10.5C28 9.67157 27.3284 9 26.5 9H18.7111C17.9214 9 17.1494 8.76625 16.4923 8.3282L12.5077 5.6718ZM13.4504 8.63359C13.615 8.74336 13.5373 9 13.3394 9H2.8C2.35817 9 2 8.64183 2 8.2V7.8C2 7.35817 2.35817 7 2.8 7H10.3944C10.7893 7 11.1753 7.11688 11.5038 7.3359L13.4504 8.63359Z"/><path fill="#fff9c4" d="M23.057 23.715a3.077 3.077 0 0 1-3.077-3.078 3.077 3.077 0 1 1 3.077 3.078m6.532-2.224a6.928 6.928 0 0 0 .062-.854 7.628 7.628 0 0 0-.062-.878l1.855-1.434a.444.444 0 0 0 .107-.562l-1.76-3.04a.431.431 0 0 0-.536-.195l-2.188.88a6.372 6.372 0 0 0-1.487-.863l-.325-2.329a.444.444 0 0 0-.44-.37h-3.516a.444.444 0 0 0-.44.37l-.324 2.33a6.373 6.373 0 0 0-1.486.86l-2.189-.878a.432.432 0 0 0-.536.193l-1.759 3.042a.433.433 0 0 0 .107.562l1.853 1.434a7.628 7.628 0 0 0-.061.88 6.908 6.908 0 0 0 .061.852l-1.853 1.458a.433.433 0 0 0-.107.563l1.759 3.043a.443.443 0 0 0 .536.193l2.19-.888a6.063 6.063 0 0 0 1.485.87l.325 2.33a.444.444 0 0 0 .44.37h3.516a.444.444 0 0 0 .44-.37l.324-2.33a6.402 6.402 0 0 0 1.487-.87l2.188.888a.445.445 0 0 0 .537-.193l1.757-3.043a.444.444 0 0 0-.105-.563Z"/></svg>