<svg width="32" height="32" viewBox="0 0 32 32" fill="none" xmlns="http://www.w3.org/2000/svg">
<path d="M18.7111 9C17.9214 9 17.1494 8.76625 16.4923 8.3282L12.5077 5.6718C11.8506 5.23375 11.0786 5 10.2889 5H1.5C0.671575 5 1.7324e-06 5.67158 3.8147e-06 6.5L5.15723e-05 25.5C5.36546e-05 26.3284 0.671626 27 1.50005 27H26.5C27.3284 27 28 26.3284 28 25.5V10.5C28 9.67157 27.3284 9 26.5 9H18.7111ZM13.4504 8.63359C13.615 8.74336 13.5373 9 13.3394 9H2.8C2.35817 9 2 8.64183 2 8.2V7.8C2 7.35817 2.35817 7 2.8 7H10.3944C10.7893 7 11.1753 7.11688 11.5038 7.3359L13.4504 8.63359Z" fill="#EF5350"/>
<path d="M11 10H15V14H11V10ZM17 10H21V14H17V10ZM23 10H27V14H23V10ZM11 16H15V20H11V16ZM17 16H21V20H17V16ZM23 16H27V20H23V16ZM11 22H15V26H11V22ZM17 22H21V26H17V22ZM23 22H27V26H23V22Z" fill="#FFCDD2"/>
</svg>
