<svg width="32" height="32" viewBox="0 0 32 32" fill="none" xmlns="http://www.w3.org/2000/svg">
<path d="M18.7111 9C17.9214 9 17.1494 8.76625 16.4923 8.3282L12.5077 5.6718C11.8506 5.23375 11.0786 5 10.2889 5H1.5C0.671575 5 1.7324e-06 5.67158 3.8147e-06 6.5L5.15723e-05 25.5C5.36546e-05 26.3284 0.671626 27 1.50005 27H26.5C27.3284 27 28 26.3284 28 25.5V10.5C28 9.67157 27.3284 9 26.5 9H18.7111ZM13.4504 8.63359C13.615 8.74336 13.5373 9 13.3394 9H2.8C2.35817 9 2 8.64183 2 8.2V7.8C2 7.35817 2.35817 7 2.8 7H10.3944C10.7893 7 11.1753 7.11688 11.5038 7.3359L13.4504 8.63359Z" fill="#FF5252"/>
<path d="M19 10L11 12.65L12.2639 22.5125L19 26V25L15.36 23.1538L13.066 21.5L12 13.32L15.5 12.16L17.34 11.56L13.066 21.5L15.36 23.1538L16.5 20.5L17.57 18L19 14.65L20.6747 11.5455L22.5 12.14L26 13.28L24.92 21.48L20.6747 11.5455L19 14.65L20.43 18H17.57L16.5 20.5H21.5L22.6531 23.1734L19 25V26L25.7361 22.4625L27 12.6L19 10Z" fill="#FFCDD2"/>
</svg>
