<svg xmlns="http://www.w3.org/2000/svg" viewBox="0 0 32 32"><path fill="#0288d1" d="M12.5077 5.6718C11.8506 5.23375 11.0786 5 10.2889 5H1.5C0.671573 5 0 5.67157 0 6.5V25.5C0 26.3284 0.671573 27 1.5 27H26.6459C27.4637 27 28.1992 26.5021 28.5029 25.7428L31.3417 18.6457C31.657 17.8574 31.0765 17 30.2276 17H5.35406C4.53626 17 3.80084 17.4979 3.49711 18.2572L2 22V12C2 11.4477 2.44772 11 3 11H25C25.5523 11 26 11.4477 26 12V17H28V10.5C28 9.67157 27.3284 9 26.5 9H18.7111C17.9214 9 17.1494 8.76625 16.4923 8.3282L12.5077 5.6718ZM13.4504 8.63359C13.615 8.74336 13.5373 9 13.3394 9H2.8C2.35817 9 2 8.64183 2 8.2V7.8C2 7.35817 2.35817 7 2.8 7H10.3944C10.7893 7 11.1753 7.11688 11.5038 7.3359L13.4504 8.63359Z"/><path fill="#b3e5fc" d="M23.448 10.106a9.975 9.975 0 0 0-2.896 0l-.634 1.653a8.495 8.495 0 0 0-2.273.942l-1.618-.72a9.977 9.977 0 0 0-2.047 2.046l.721 1.618a8.496 8.496 0 0 0-.942 2.273l-1.653.634a9.975 9.975 0 0 0 0 2.896l1.653.634a8.495 8.495 0 0 0 .942 2.273l-.72 1.618a9.977 9.977 0 0 0 2.046 2.047l1.618-.721a8.496 8.496 0 0 0 2.273.942l.634 1.653a9.974 9.974 0 0 0 2.896 0l.634-1.653a8.496 8.496 0 0 0 2.273-.942l1.618.72a9.977 9.977 0 0 0 2.047-2.046l-.721-1.618a8.495 8.495 0 0 0 .942-2.273l1.653-.634a9.975 9.975 0 0 0 0-2.896l-1.653-.634a8.495 8.495 0 0 0-.942-2.273l.72-1.618a9.977 9.977 0 0 0-2.046-2.047l-1.618.721a8.495 8.495 0 0 0-2.273-.942ZM22 13.592A6.408 6.408 0 1 1 15.592 20 6.408 6.408 0 0 1 22 13.592Z"/><path fill="#b3e5fc" d="M24.607 22.602a3.62 3.62 0 1 1-.006-5.118l.006.006-1.28 1.278a1.81 1.81 0 1 0-.004 2.56l.004-.004Z"/></svg>