<svg width="32" height="32" viewBox="0 0 32 32" fill="none" xmlns="http://www.w3.org/2000/svg">
<path d="M12.5077 5.6718C11.8506 5.23375 11.0786 5 10.2889 5H1.5C0.671573 5 0 5.67157 0 6.5V25.5C0 26.3284 0.671573 27 1.5 27H26.6459C27.4637 27 28.1992 26.5021 28.5029 25.7428L31.3417 18.6457C31.657 17.8574 31.0765 17 30.2276 17H5.35406C4.53626 17 3.80084 17.4979 3.49711 18.2572L2 22V12C2 11.4477 2.44772 11 3 11H25C25.5523 11 26 11.4477 26 12V17H28V10.5C28 9.67157 27.3284 9 26.5 9H18.7111C17.9214 9 17.1494 8.76625 16.4923 8.3282L12.5077 5.6718ZM13.4504 8.63359C13.615 8.74336 13.5373 9 13.3394 9H2.8C2.35817 9 2 8.64183 2 8.2V7.8C2 7.35817 2.35817 7 2.8 7H10.3944C10.7893 7 11.1753 7.11688 11.5038 7.3359L13.4504 8.63359Z" fill="#7E57C2"/>
<path d="M22 26H25L21 14H17L13 26H16L16.667 24H19.677L19 22H17.333L19 17L22 26Z" fill="#D1C4E9"/>
<path d="M25.2859 12.8186C25.166 12.819 25.0465 12.8332 24.9293 12.8609C23.2876 11.1411 21.1361 10.1293 18.8697 10.0116C16.6034 9.8938 14.3745 10.6779 12.5922 12.2198C10.81 13.7618 9.59409 15.958 9.16783 18.4054C8.74158 20.8527 9.13357 23.3867 10.2718 25.5421C10.3893 25.7568 10.5797 25.9114 10.801 25.972C11.0224 26.0325 11.2565 25.994 11.452 25.865C11.6475 25.7359 11.7883 25.5269 11.8434 25.2838C11.8985 25.0408 11.8635 24.7836 11.746 24.5689C10.8231 22.815 10.5041 20.7557 10.8468 18.7653C11.1896 16.775 12.1715 14.9859 13.6138 13.7233C15.0562 12.4607 16.8632 11.8085 18.7064 11.8853C20.5496 11.9622 22.3064 12.7629 23.6575 14.1419C23.6031 14.3224 23.5742 14.511 23.5717 14.701C23.5717 15.0733 23.6723 15.4373 23.8606 15.7469C24.049 16.0564 24.3167 16.2977 24.6299 16.4402C24.9431 16.5827 25.2878 16.62 25.6203 16.5473C25.9528 16.4747 26.2582 16.2954 26.4979 16.0321C26.7377 15.7689 26.9009 15.4334 26.9671 15.0683C27.0332 14.7031 26.9993 14.3246 26.8695 13.9806C26.7398 13.6367 26.5201 13.3427 26.2382 13.1358C25.9563 12.929 25.6249 12.8186 25.2859 12.8186Z" fill="#D1C4E9"/>
</svg>
