<svg width="32" height="32" viewBox="0 0 32 32" fill="none" xmlns="http://www.w3.org/2000/svg">
<path d="M12.5077 5.6718C11.8506 5.23375 11.0786 5 10.2889 5H1.5C0.671573 5 0 5.67157 0 6.5V25.5C0 26.3284 0.671573 27 1.5 27H26.6459C27.4637 27 28.1992 26.5021 28.5029 25.7428L31.3417 18.6457C31.657 17.8574 31.0765 17 30.2276 17H5.35406C4.53626 17 3.80084 17.4979 3.49711 18.2572L2 22V12C2 11.4477 2.44772 11 3 11H25C25.5523 11 26 11.4477 26 12V17H28V10.5C28 9.67157 27.3284 9 26.5 9H18.7111C17.9214 9 17.1494 8.76625 16.4923 8.3282L12.5077 5.6718ZM13.4504 8.63359C13.615 8.74336 13.5373 9 13.3394 9H2.8C2.35817 9 2 8.64183 2 8.2V7.8C2 7.35817 2.35817 7 2.8 7H10.3944C10.7893 7 11.1753 7.11688 11.5038 7.3359L13.4504 8.63359Z" fill="#EF5350"/>
<path fill-rule="evenodd" clip-rule="evenodd" d="M23.9347 20.1346C24.3348 20.0736 24.7459 20.0796 25.1431 20.1522V13.1869L16.1659 15.3014C16.1659 18.0443 16.1659 20.7858 16.1659 23.5257C16.1659 24.809 14.4418 25.7439 13.0589 25.9511C11.3429 26.1937 9.94917 25.5102 9.94917 24.4077C9.94917 23.3052 11.3509 22.2381 13.0562 21.9955C13.6373 21.9046 14.237 21.9365 14.799 22.0881V12.1307L26.4912 9.94563V21.1643C26.6201 22.3549 25.1485 23.2567 23.924 23.4309C22.49 23.6338 21.3299 23.0605 21.3299 22.1499C21.3299 21.2392 22.49 20.3374 23.924 20.1346H23.9347Z" fill="#FFCDD2"/>
</svg>
