<svg xmlns="http://www.w3.org/2000/svg" viewBox="0 0 32 32"><path fill="#1e88e5" d="M12.5077 5.6718C11.8506 5.23375 11.0786 5 10.2889 5H1.5C0.671573 5 0 5.67157 0 6.5V25.5C0 26.3284 0.671573 27 1.5 27H26.6459C27.4637 27 28.1992 26.5021 28.5029 25.7428L31.3417 18.6457C31.657 17.8574 31.0765 17 30.2276 17H5.35406C4.53626 17 3.80084 17.4979 3.49711 18.2572L2 22V12C2 11.4477 2.44772 11 3 11H25C25.5523 11 26 11.4477 26 12V17H28V10.5C28 9.67157 27.3284 9 26.5 9H18.7111C17.9214 9 17.1494 8.76625 16.4923 8.3282L12.5077 5.6718ZM13.4504 8.63359C13.615 8.74336 13.5373 9 13.3394 9H2.8C2.35817 9 2 8.64183 2 8.2V7.8C2 7.35817 2.35817 7 2.8 7H10.3944C10.7893 7 11.1753 7.11688 11.5038 7.3359L13.4504 8.63359Z"/><path fill="#bbdefb" d="M20 12a9.99 9.99 0 0 0-7.99 16h2.71A7.993 7.993 0 0 1 20 14a7.883 7.883 0 0 1 1.69.18c.73-.44 1.51-.9 2.28-1.35A9.767 9.767 0 0 0 20 12Zm9.12 5.92c-.41.73-.86 1.52-1.32 2.33A7.76 7.76 0 0 1 28 22a7.965 7.965 0 0 1-2.72 6h2.71A9.934 9.934 0 0 0 30 22a9.765 9.765 0 0 0-.88-4.08Z"/><path fill="#bbdefb" d="M17.172 19.172c1.562-1.563 11.313-5.657 11.313-5.657s-4.094 9.751-5.657 11.313a4 4 0 0 1-5.656-5.656Z"/></svg>