<svg width="32" height="32" viewBox="0 0 32 32" fill="none" xmlns="http://www.w3.org/2000/svg">
<path d="M12.5077 5.6718C11.8506 5.23375 11.0786 5 10.2889 5H1.5C0.671573 5 0 5.67157 0 6.5V25.5C0 26.3284 0.671573 27 1.5 27H26.6459C27.4637 27 28.1992 26.5021 28.5029 25.7428L31.3417 18.6457C31.657 17.8574 31.0765 17 30.2276 17H5.35406C4.53626 17 3.80084 17.4979 3.49711 18.2572L2 22V12C2 11.4477 2.44772 11 3 11H25C25.5523 11 26 11.4477 26 12V17H28V10.5C28 9.67157 27.3284 9 26.5 9H18.7111C17.9214 9 17.1494 8.76625 16.4923 8.3282L12.5077 5.6718ZM13.4504 8.63359C13.615 8.74336 13.5373 9 13.3394 9H2.8C2.35817 9 2 8.64183 2 8.2V7.8C2 7.35817 2.35817 7 2.8 7H10.3944C10.7893 7 11.1753 7.11688 11.5038 7.3359L13.4504 8.63359Z" fill="#1E88E5"/>
<path d="M23.4444 18.8889L26.7547 17.2338C26.8284 17.1968 26.8904 17.1401 26.9337 17.0699C26.977 16.9998 27 16.9189 27 16.8364V10.4444C27 10.3266 26.9532 10.2135 26.8698 10.1302C26.7865 10.0468 26.6734 10 26.5556 10H20.1636C20.0811 10 20.0002 10.023 19.9301 10.0663C19.8599 10.1096 19.8032 10.1716 19.7662 10.2453L18.1111 13.5556H13.2222C13.1043 13.5556 12.9913 13.6024 12.908 13.6857C12.8246 13.7691 12.7778 13.8821 12.7778 14V17.1111L13.8196 18.1529L15.0764 16.8951L16.3333 18.1529L15.0764 19.4098L17.5902 21.9236L18.8471 20.6667L20.1049 21.9236L18.8471 23.1804L19.8889 24.2222H23C23.1179 24.2222 23.2309 24.1754 23.3143 24.092C23.3976 24.0087 23.4444 23.8957 23.4444 23.7778V18.8889ZM23.4444 15.3333C23.0928 15.3333 22.7491 15.2291 22.4568 15.0337C22.1644 14.8384 21.9365 14.5607 21.802 14.2359C21.6674 13.911 21.6322 13.5536 21.7008 13.2087C21.7694 12.8639 21.9387 12.5471 22.1874 12.2985C22.436 12.0499 22.7528 11.8805 23.0976 11.8119C23.4425 11.7433 23.7999 11.7785 24.1248 11.9131C24.4496 12.0477 24.7273 12.2755 24.9226 12.5679C25.118 12.8602 25.2222 13.2039 25.2222 13.5556C25.2222 14.0271 25.0349 14.4792 24.7015 14.8126C24.3681 15.146 23.9159 15.3333 23.4444 15.3333ZM12.7778 24.2222V20.6667H11V26H16.3333V24.2222H12.7778Z" fill="#BBDEFB"/>
</svg>
