<svg xmlns="http://www.w3.org/2000/svg" viewBox="0 0 32 32"><path fill="#00acc1" d="M18.7111 9C17.9214 9 17.1494 8.76625 16.4923 8.3282L12.5077 5.6718C11.8506 5.23375 11.0786 5 10.2889 5H1.5C0.671575 5 1.68804e-06 5.67158 3.77034e-06 6.5L5.15279e-05 25.5C5.36102e-05 26.3284 0.671626 27 1.50005 27H26.5C27.3284 27 28 26.3284 28 25.5V10.5C28 9.67157 27.3284 9 26.5 9H18.7111ZM13.4504 8.63359C13.615 8.74336 13.5373 9 13.3394 9H2.8C2.35817 9 2 8.64183 2 8.2V7.8C2 7.35817 2.35817 7 2.8 7H10.3944C10.7893 7 11.1753 7.11688 11.5038 7.3359L13.4504 8.63359Z"/><path fill="#80deea" d="M23.001 24.15A3.195 3.195 0 0 1 19.762 21a3.24 3.24 0 1 1 3.239 3.15m6.875-2.277a6.901 6.901 0 0 0 .064-.874 7.596 7.596 0 0 0-.064-.9l1.951-1.467a.446.446 0 0 0 .113-.576l-1.853-3.112a.46.46 0 0 0-.564-.199l-2.302.9a6.754 6.754 0 0 0-1.565-.882l-.342-2.385A.464.464 0 0 0 24.85 12h-3.7a.464.464 0 0 0-.463.378l-.341 2.385a6.755 6.755 0 0 0-1.563.881l-2.304-.899a.46.46 0 0 0-.564.198l-1.851 3.113a.436.436 0 0 0 .112.576l1.95 1.468a7.6 7.6 0 0 0-.064.9 6.883 6.883 0 0 0 .064.873l-1.95 1.493a.436.436 0 0 0-.112.576l1.85 3.115a.472.472 0 0 0 .565.198l2.304-.91a6.425 6.425 0 0 0 1.563.892l.342 2.385a.464.464 0 0 0 .463.378h3.7a.464.464 0 0 0 .464-.378l.34-2.385a6.784 6.784 0 0 0 1.566-.891l2.302.909a.475.475 0 0 0 .566-.198l1.85-3.115a.446.446 0 0 0-.112-.576Z"/></svg>