<svg xmlns="http://www.w3.org/2000/svg" viewBox="0 0 32 32"><path fill="#0288d1" d="M18.7111 9C17.9214 9 17.1494 8.76625 16.4923 8.3282L12.5077 5.6718C11.8506 5.23375 11.0786 5 10.2889 5H1.5C0.671575 5 1.68804e-06 5.67158 3.77034e-06 6.5L5.15279e-05 25.5C5.36102e-05 26.3284 0.671626 27 1.50005 27H26.5C27.3284 27 28 26.3284 28 25.5V10.5C28 9.67157 27.3284 9 26.5 9H18.7111ZM13.4504 8.63359C13.615 8.74336 13.5373 9 13.3394 9H2.8C2.35817 9 2 8.64183 2 8.2V7.8C2 7.35817 2.35817 7 2.8 7H10.3944C10.7893 7 11.1753 7.11688 11.5038 7.3359L13.4504 8.63359Z"/><path fill="#b3e5fc" d="M23.998 12.978v2.986l4-3.981-4-3.983v2.986A7.981 7.981 0 0 0 16 18.95v.002a7.875 7.875 0 0 0 1.239 4.24l1.46-1.455a5.855 5.855 0 0 1-.7-2.785 5.987 5.987 0 0 1 6-5.974m6.759 1.732-1.46 1.454a5.968 5.968 0 0 1-5.3 8.76v-2.985l-4 3.983 4 3.981v-2.986a7.981 7.981 0 0 0 7.999-7.964v-.001a7.874 7.874 0 0 0-1.24-4.24Z"/></svg>