<svg width="32" height="32" viewBox="0 0 32 32" fill="none" xmlns="http://www.w3.org/2000/svg">
<path d="M12.5077 5.6718C11.8506 5.23375 11.0786 5 10.2889 5H1.5C0.671573 5 0 5.67157 0 6.5V25.5C0 26.3284 0.671573 27 1.5 27H26.6459C27.4637 27 28.1992 26.5021 28.5029 25.7428L31.3417 18.6457C31.657 17.8574 31.0765 17 30.2276 17H5.35406C4.53626 17 3.80084 17.4979 3.49711 18.2572L2 22V12C2 11.4477 2.44772 11 3 11H25C25.5523 11 26 11.4477 26 12V17H28V10.5C28 9.67157 27.3284 9 26.5 9H18.7111C17.9214 9 17.1494 8.76625 16.4923 8.3282L12.5077 5.6718ZM13.4504 8.63359C13.615 8.74336 13.5373 9 13.3394 9H2.8C2.35817 9 2 8.64183 2 8.2V7.8C2 7.35817 2.35817 7 2.8 7H10.3944C10.7893 7 11.1753 7.11688 11.5038 7.3359L13.4504 8.63359Z" fill="#8D6E63"/>
<g clip-path="url(#clip0_621_14)">
<path d="M24.7763 10.0959C24.3093 10.2513 23.5272 10.6978 22.5934 11.3428V11.3825L23.4105 12.2391L23.4514 12.2556C24.0525 11.7694 24.6595 11.3295 25.2782 10.9558C25.3249 10.926 25.3482 10.9128 25.3482 10.9128C25.3249 10.926 25.3016 10.9426 25.2782 10.9558C25.0798 11.0815 24.4728 11.4784 23.5623 12.2722L23.6673 12.2854C23.6673 12.2854 25.7977 12.1663 26.8249 12.0671L26.8833 12.0373C27.2101 10.9988 26.5623 10.5225 26.5623 10.5225C26.5623 10.5225 25.7451 9.77507 24.7763 10.0959Z" fill="url(#paint0_linear_621_14)"/>
<path d="M20.93 14.6204C21.1926 14.3459 21.4553 14.0747 21.7179 13.8134C21.9922 13.5422 22.2724 13.2776 22.5584 13.0229C22.5759 13.0097 22.5934 12.9932 22.6051 12.9766C22.8852 12.7253 23.1654 12.4871 23.4514 12.2556L22.5934 11.3395C22.5292 11.3825 22.465 11.4288 22.4008 11.4751C22.1556 11.6504 21.8988 11.8356 21.6362 12.034C21.3385 12.2589 21.035 12.4971 20.7257 12.7484C20.4397 12.9799 20.1479 13.2247 19.8619 13.4727C19.6167 13.6877 19.3658 13.906 19.1206 14.1342C19.1089 14.1441 19.1031 14.1508 19.0914 14.1607V14.1971L20.1595 15.3976L20.2062 15.4076C20.4455 15.143 20.6848 14.8784 20.93 14.6204Z" fill="url(#paint1_linear_621_14)"/>
<path d="M16.2782 20.4977C16.4708 20.2132 16.6751 19.9255 16.8794 19.6344C17.0778 19.3566 17.2763 19.0755 17.4864 18.7944C17.6907 18.5132 17.9066 18.2321 18.1226 17.9477C18.3444 17.6599 18.5661 17.3722 18.7938 17.0877C19.0214 16.8066 19.249 16.5255 19.4825 16.2477C19.5642 16.1484 19.6517 16.0459 19.7393 15.9467C19.8852 15.7747 20.037 15.6027 20.1829 15.4341C20.1887 15.4241 20.2004 15.4175 20.2062 15.4076L19.0914 14.1607C19.0739 14.1772 19.0564 14.1938 19.0389 14.2103C18.7821 14.4518 18.5195 14.6965 18.2685 14.9479C18.0117 15.2025 17.7607 15.4605 17.5156 15.7218C17.3054 15.9434 17.107 16.165 16.9086 16.3899C16.8677 16.4362 16.8327 16.4792 16.7918 16.5255C16.5467 16.8099 16.3307 17.0811 16.1323 17.3457C15.9105 17.6434 15.7121 17.9278 15.537 18.199C15.4202 18.3776 15.321 18.5463 15.2218 18.7117C15.1459 18.8506 15.07 18.9928 15 19.1317C14.8307 19.4625 14.6907 19.7899 14.5739 20.1206L14.5914 20.1603L15.6595 21.3642L15.6946 21.3741C15.8405 21.1492 15.9922 20.9243 16.1498 20.6928C16.1907 20.6267 16.2374 20.5638 16.2782 20.4977Z" fill="url(#paint2_linear_621_14)"/>
<path d="M14.5623 20.1636C14.4222 20.5638 14.323 20.964 14.2704 21.3609C14.2704 21.3741 14.2646 21.3873 14.2646 21.4039C13.9144 21.0864 12.9805 20.7788 12.9805 20.7788C13.6518 21.3278 14.1595 21.8735 14.2354 22.4093C13.8794 22.4523 13.3891 22.3895 12.8171 22.2737C13.4066 22.5813 13.8502 22.6673 14.0253 22.6905C13.4825 22.7103 12.9163 22.922 12.3444 23.1634C13.179 22.9716 13.8502 22.8955 14.3346 22.955C13.57 24.1821 12.8054 25.5381 12.035 26.9735C12.2685 26.9338 12.4086 26.8445 12.4903 26.7222C12.6245 26.4609 13.535 24.7543 14.9533 22.5085C14.9942 22.4457 15.035 22.3796 15.0759 22.3167C15.0875 22.3002 15.0992 22.2803 15.1109 22.2638C15.2626 22.029 15.4144 21.7875 15.5778 21.5428C15.6128 21.4866 15.6537 21.4303 15.6887 21.3741V21.3708L14.5739 20.1206C14.5739 20.1371 14.5681 20.1504 14.5623 20.1636Z" fill="url(#paint3_linear_621_14)"/>
<path d="M23.5623 12.2755C23.3113 12.4938 23.037 12.7418 22.7393 13.0229C22.7218 13.0362 22.7101 13.0527 22.6926 13.0659C22.4358 13.3107 22.1673 13.5753 21.8813 13.8696C21.6362 14.121 21.3794 14.3922 21.1109 14.6866C20.8774 14.9412 20.6381 15.2091 20.393 15.4969L20.4455 15.5101L23.1595 15.3447L23.2237 15.3183C24.0467 15.1033 24.4144 14.9082 24.7704 14.627C24.8638 14.551 24.963 14.4683 25.0564 14.3856C25.3483 14.1276 25.6342 13.8465 25.8852 13.5654C26.1304 13.2942 26.3463 13.0229 26.5156 12.7815C26.6206 12.6261 26.7082 12.4838 26.7665 12.3582C26.8191 12.2457 26.8599 12.1399 26.8891 12.0406C25.7918 12.1498 24.4436 12.2523 23.5623 12.2755Z" fill="url(#paint4_linear_621_14)"/>
<path d="M20.2879 15.6259C20.1946 15.7383 20.0953 15.8541 19.9961 15.9698C19.891 16.0955 19.7802 16.2278 19.6751 16.3601C19.6226 16.4262 19.5642 16.4957 19.5117 16.5619C19.3424 16.7669 19.179 16.9786 19.0039 17.1969C18.7938 17.4648 18.5778 17.7459 18.3619 18.0336C18.1518 18.3115 17.9416 18.5959 17.7315 18.8936C17.5272 19.1747 17.323 19.4657 17.1187 19.7634C16.9319 20.0313 16.7451 20.3025 16.5584 20.5869C16.5467 20.6002 16.5409 20.6134 16.5292 20.6266C16.3424 20.9078 16.1602 21.1938 15.9676 21.4881C15.9618 21.4947 15.9514 21.5119 15.9455 21.5186L15.9859 21.5236L16.7977 21.4741L16.8435 21.4634C16.826 21.4601 16.8152 21.4469 16.7977 21.4436C17.8716 21.3675 19.3016 20.9111 20.2296 20.3488C20.6556 20.0908 21.0409 19.7833 21.4027 19.4261C21.6712 19.1582 21.9163 18.8638 22.1556 18.5364C22.3658 18.2519 22.5642 17.941 22.7568 17.607C22.5117 17.6798 22.2257 17.736 21.9163 17.7724C21.8638 17.779 21.8054 17.7856 21.7471 17.7922C21.6887 17.7988 21.6303 17.8021 21.5778 17.8087C22.5817 17.5905 23.2121 17.1671 23.6732 16.6512C23.4105 16.7537 22.9786 16.886 22.465 16.9521C22.3949 16.962 22.3249 16.9687 22.249 16.9753C22.2315 16.9753 22.214 16.9786 22.1965 16.9786C22.5467 16.8959 22.8385 16.8033 23.0953 16.6941C23.1479 16.671 23.2004 16.6478 23.2529 16.6214C23.3288 16.5817 23.4047 16.542 23.4747 16.5023C23.5214 16.4759 23.5623 16.4494 23.6089 16.4196C23.7082 16.3535 23.8016 16.2807 23.8891 16.2013C23.9183 16.1782 23.9416 16.1517 23.9708 16.1286C24.0058 16.0922 24.035 16.0558 24.0642 16.0194C24.2043 15.8607 24.3152 15.7185 24.4027 15.5928C24.4494 15.5299 24.4844 15.4737 24.5195 15.4175C24.5311 15.3976 24.5428 15.3745 24.5603 15.3547C24.5953 15.2951 24.6245 15.2422 24.6479 15.1926C24.6829 15.1231 24.7004 15.0669 24.7121 15.0272C24.677 15.0438 24.642 15.057 24.5953 15.0735C24.2918 15.1761 23.7724 15.2687 23.3521 15.3117C23.2938 15.3183 23.2529 15.3216 23.2062 15.3282C23.2101 15.326 22.2741 15.3821 20.398 15.4964C20.3864 15.5031 20.3171 15.5862 20.2879 15.6259Z" fill="url(#paint5_linear_621_14)"/>
<path d="M15.858 21.642C15.7121 21.8702 15.5603 22.1051 15.4144 22.3432C15.4144 22.3465 15.4086 22.3498 15.4086 22.3531C15.3852 22.3862 15.3677 22.4193 15.3444 22.4556C15.2451 22.6177 15.1576 22.7599 14.9591 23.0907C15.286 23.1767 15.5486 23.3983 15.7996 23.6529C15.7763 23.3916 15.5837 23.1436 15.216 22.9551C16.8327 22.9948 18.2276 22.7632 18.9455 22.0951C19.0097 22.0356 19.0681 21.9728 19.1206 21.9066C18.7938 22.1414 18.3852 22.2407 17.6265 22.2175C18.7529 21.9331 19.3132 21.6586 19.8152 21.2055C19.9319 21.0963 20.0486 20.9806 20.1654 20.8516C19.179 21.4237 18.0409 21.5858 16.8444 21.4634L15.9455 21.5197C15.9163 21.556 15.8872 21.599 15.858 21.642Z" fill="url(#paint6_linear_621_14)"/>
</g>
<defs>
<linearGradient id="paint0_linear_621_14" x1="206.151" y1="752.588" x2="1133.73" y2="-337.053" gradientUnits="userSpaceOnUse">
<stop stop-color="#F69923"/>
<stop offset="0.3123" stop-color="#F79A23"/>
<stop offset="0.8383" stop-color="#E97826"/>
</linearGradient>
<linearGradient id="paint1_linear_621_14" x1="-2410.2" y1="8231.82" x2="479.085" y2="165.68" gradientUnits="userSpaceOnUse">
<stop offset="0.3233" stop-color="#9E2064"/>
<stop offset="0.6302" stop-color="#C92037"/>
<stop offset="0.7514" stop-color="#CD2335"/>
<stop offset="1" stop-color="#E97826"/>
</linearGradient>
<linearGradient id="paint2_linear_621_14" x1="-1139.55" y1="6308.18" x2="3558.46" y2="-653.314" gradientUnits="userSpaceOnUse">
<stop offset="0.3233" stop-color="#9E2064"/>
<stop offset="0.6302" stop-color="#C92037"/>
<stop offset="0.7514" stop-color="#CD2335"/>
<stop offset="1" stop-color="#E97826"/>
</linearGradient>
<linearGradient id="paint3_linear_621_14" x1="-159.281" y1="2734.46" x2="2950.35" y2="586.02" gradientUnits="userSpaceOnUse">
<stop stop-color="#282662"/>
<stop offset="0.0954839" stop-color="#662E8D"/>
<stop offset="0.7882" stop-color="#9F2064"/>
<stop offset="0.9487" stop-color="#CD2032"/>
</linearGradient>
<linearGradient id="paint4_linear_621_14" x1="-2137.9" y1="8249.29" x2="-1175.33" y2="47.3627" gradientUnits="userSpaceOnUse">
<stop offset="0.3233" stop-color="#9E2064"/>
<stop offset="0.6302" stop-color="#C92037"/>
<stop offset="0.7514" stop-color="#CD2335"/>
<stop offset="1" stop-color="#E97826"/>
</linearGradient>
<linearGradient id="paint5_linear_621_14" x1="-766.851" y1="6258.43" x2="1097.42" y2="-2000.8" gradientUnits="userSpaceOnUse">
<stop offset="0.3233" stop-color="#9E2064"/>
<stop offset="0.6302" stop-color="#C92037"/>
<stop offset="0.7514" stop-color="#CD2335"/>
<stop offset="1" stop-color="#E97826"/>
</linearGradient>
<linearGradient id="paint6_linear_621_14" x1="-259.849" y1="2782.79" x2="322.4" y2="-2105.04" gradientUnits="userSpaceOnUse">
<stop stop-color="#282662"/>
<stop offset="0.0954839" stop-color="#662E8D"/>
<stop offset="0.7882" stop-color="#9F2064"/>
<stop offset="0.9487" stop-color="#CD2032"/>
</linearGradient>
<clipPath id="clip0_621_14">
<rect width="15" height="17" fill="white" transform="translate(12 10)"/>
</clipPath>
</defs>
</svg>
