<svg width="32" height="32" viewBox="0 0 32 32" fill="none" xmlns="http://www.w3.org/2000/svg">
<path d="M12.5077 5.6718C11.8506 5.23375 11.0786 5 10.2889 5H1.5C0.671573 5 0 5.67157 0 6.5V25.5C0 26.3284 0.671573 27 1.5 27H26.6459C27.4637 27 28.1992 26.5021 28.5029 25.7428L31.3417 18.6457C31.657 17.8574 31.0765 17 30.2276 17H5.35406C4.53626 17 3.80084 17.4979 3.49711 18.2572L2 22V12C2 11.4477 2.44772 11 3 11H25C25.5523 11 26 11.4477 26 12V17H28V10.5C28 9.67157 27.3284 9 26.5 9H18.7111C17.9214 9 17.1494 8.76625 16.4923 8.3282L12.5077 5.6718ZM13.4504 8.63359C13.615 8.74336 13.5373 9 13.3394 9H2.8C2.35817 9 2 8.64183 2 8.2V7.8C2 7.35817 2.35817 7 2.8 7H10.3944C10.7893 7 11.1753 7.11688 11.5038 7.3359L13.4504 8.63359Z" fill="#616161"/>
<path d="M27 18C27 19.5822 26.5308 21.129 25.6518 22.4446C24.7727 23.7602 23.5233 24.7855 22.0615 25.391C20.5997 25.9965 18.9911 26.155 17.4393 25.8463C15.8874 25.5376 14.462 24.7757 13.3431 23.6568C12.2243 22.538 11.4624 21.1126 11.1537 19.5607C10.845 18.0089 11.0035 16.4003 11.609 14.9385C12.2145 13.4767 13.2398 12.2273 14.5554 11.3482C15.871 10.4692 17.4178 10 19 10C21.1186 10.0101 23.1476 10.8561 24.6458 12.3542C26.1439 13.8524 26.9899 15.8814 27 18Z" fill="#9E9E9E"/>
<path d="M22.9423 20.856L19.7427 12.5233C19.6831 12.3686 19.5804 12.236 19.4478 12.1427C19.3152 12.0494 19.1588 11.9997 18.9987 12H18.9939C18.8332 12.0012 18.6764 12.0528 18.5442 12.148C18.4119 12.2433 18.3103 12.3778 18.2524 12.5341L15 21.9992H16.5998L17.5917 18.9678L21.7552 21.8593C21.8973 21.9583 22.0661 22.0073 22.2368 21.9991C22.4076 21.9909 22.5713 21.926 22.7041 21.8138C22.8368 21.7016 22.9316 21.5481 22.9744 21.3757C23.0173 21.2034 23.006 21.0212 22.9423 20.856ZM18.1796 17.3729L19.0139 15.1148L20.5002 18.9845L18.1796 17.3729Z" fill="#FAFAFA"/>
</svg>
