<svg xmlns="http://www.w3.org/2000/svg" viewBox="0 0 32 32"><path fill="#448aff" d="M18.7111 9C17.9214 9 17.1494 8.76625 16.4923 8.3282L12.5077 5.6718C11.8506 5.23375 11.0786 5 10.2889 5H1.5C0.671575 5 1.68804e-06 5.67158 3.77034e-06 6.5L5.15279e-05 25.5C5.36102e-05 26.3284 0.671626 27 1.50005 27H26.5C27.3284 27 28 26.3284 28 25.5V10.5C28 9.67157 27.3284 9 26.5 9H18.7111ZM13.4504 8.63359C13.615 8.74336 13.5373 9 13.3394 9H2.8C2.35817 9 2 8.64183 2 8.2V7.8C2 7.35817 2.35817 7 2.8 7H10.3944C10.7893 7 11.1753 7.11688 11.5038 7.3359L13.4504 8.63359Z"/><path fill="#bbdefb" d="M24.368 20.368a.947.947 0 0 0-.044 1.339l.044.044a.981.981 0 0 0 1.382 0 4.87 4.87 0 0 0 0-6.883l-3.446-3.447a4.867 4.867 0 0 0-6.883 6.882l1.449 1.452a6.726 6.726 0 0 1 .39-2.356l-.457-.468a2.903 2.903 0 0 1-.022-4.105l.022-.023a2.903 2.903 0 0 1 4.106-.02l.021.02 3.438 3.437a2.903 2.903 0 0 1 .022 4.106l-.022.022m-2.746-4.128a.981.981 0 0 0-1.383 0 4.87 4.87 0 0 0 0 6.883l3.448 3.447a4.867 4.867 0 0 0 6.892-6.873l-.01-.01-1.45-1.451a6.816 6.816 0 0 1-.39 2.366l.458.456a2.903 2.903 0 0 1 .024 4.105l-.024.025a2.903 2.903 0 0 1-4.106.022l-.022-.022-3.437-3.437a2.903 2.903 0 0 1-.023-4.106l.023-.022a.947.947 0 0 0 .043-1.34q-.02-.022-.043-.043Z"/></svg>