<svg width="32" height="32" viewBox="0 0 32 32" fill="none" xmlns="http://www.w3.org/2000/svg">
<path d="M18.7111 9C17.9214 9 17.1494 8.76625 16.4923 8.3282L12.5077 5.6718C11.8506 5.23375 11.0786 5 10.2889 5H1.5C0.671575 5 1.7324e-06 5.67158 3.8147e-06 6.5L5.15723e-05 25.5C5.36546e-05 26.3284 0.671626 27 1.50005 27H26.5C27.3284 27 28 26.3284 28 25.5V10.5C28 9.67157 27.3284 9 26.5 9H18.7111ZM13.4504 8.63359C13.615 8.74336 13.5373 9 13.3394 9H2.8C2.35817 9 2 8.64183 2 8.2V7.8C2 7.35817 2.35817 7 2.8 7H10.3944C10.7893 7 11.1753 7.11688 11.5038 7.3359L13.4504 8.63359Z" fill="#EC407A"/>
<path d="M20 12C19.3227 11.9981 18.6488 12.0958 18 12.29C16.6947 11.9034 15.3053 11.9034 14 12.29C13.3512 12.0958 12.6773 11.9981 12 12C10.1435 12 8.36301 12.7375 7.05025 14.0502C5.7375 15.363 5 17.1435 5 19C5 20.8565 5.7375 22.637 7.05025 23.9497C8.36301 25.2625 10.1435 26 12 26C12.6773 26.0019 13.3512 25.9042 14 25.71C15.3053 26.0968 16.6947 26.0968 18 25.71C18.6488 25.9042 19.3227 26.0019 20 26C21.8565 26 23.637 25.2625 24.9497 23.9497C26.2625 22.637 27 20.8565 27 19C27 17.1435 26.2625 15.363 24.9497 14.0502C23.637 12.7375 21.8565 12 20 12ZM7 19C7.00023 17.8459 7.39967 16.7275 8.13057 15.8344C8.86146 14.9413 9.87879 14.3285 11.01 14.1C9.72216 15.4057 9.00015 17.166 9.00015 19C9.00015 20.834 9.72216 22.5942 11.01 23.9C9.87879 23.6715 8.86146 23.0587 8.13057 22.1656C7.39967 21.2725 7.00023 20.1541 7 19ZM15.01 23.9C13.8789 23.6715 12.8617 23.0587 12.1309 22.1655C11.4002 21.2724 11.0009 20.154 11.0009 19C11.0009 17.846 11.4002 16.7276 12.1309 15.8345C12.8617 14.9413 13.8789 14.3285 15.01 14.1C13.7222 15.4057 13.0001 17.166 13.0001 19C13.0001 20.834 13.7222 22.5942 15.01 23.9ZM18 14.41C18.8921 14.8007 19.651 15.443 20.1838 16.2581C20.7167 17.0733 21.0005 18.0261 21.0005 19C21.0005 19.9739 20.7167 20.9267 20.1838 21.7419C19.651 22.557 18.8921 23.1993 18 23.59C17.1079 23.1993 16.349 22.557 15.8162 21.7419C15.2833 20.9267 14.9995 19.9739 14.9995 19C14.9995 18.0261 15.2833 17.0733 15.8162 16.2581C16.349 15.443 17.1079 14.8007 18 14.41ZM20.99 23.9C22.2778 22.5942 22.9999 20.834 22.9999 19C22.9999 17.166 22.2778 15.4057 20.99 14.1C22.1211 14.3285 23.1383 14.9413 23.8691 15.8345C24.5998 16.7276 24.9991 17.846 24.9991 19C24.9991 20.154 24.5998 21.2724 23.8691 22.1655C23.1383 23.0587 22.1211 23.6715 20.99 23.9Z" fill="#F8BBD0"/>
</svg>
