<svg width="32" height="32" viewBox="0 0 32 32" fill="none" xmlns="http://www.w3.org/2000/svg">
<path d="M18.7111 9C17.9214 9 17.1494 8.76625 16.4923 8.3282L12.5077 5.6718C11.8506 5.23375 11.0786 5 10.2889 5H1.5C0.671575 5 1.7324e-06 5.67158 3.8147e-06 6.5L5.15723e-05 25.5C5.36546e-05 26.3284 0.671626 27 1.50005 27H26.5C27.3284 27 28 26.3284 28 25.5V10.5C28 9.67157 27.3284 9 26.5 9H18.7111ZM13.4504 8.63359C13.615 8.74336 13.5373 9 13.3394 9H2.8C2.35817 9 2 8.64183 2 8.2V7.8C2 7.35817 2.35817 7 2.8 7H10.3944C10.7893 7 11.1753 7.11688 11.5038 7.3359L13.4504 8.63359Z" fill="#1E88E5"/>
<g clip-path="url(#clip0_616_34)">
<path d="M8 26L11.0677 14H12.2064L15.4755 26H14.2714L13.3398 22.3649H9.99948L9.12233 26H8ZM10.3048 21.0723H13.0127L12.179 17.7489C11.9247 16.7411 11.7359 15.9116 11.6125 15.2605C11.5088 16.0401 11.3649 16.8063 11.1819 17.5522L10.3048 21.0723ZM16.3199 26V14H19.3332C19.8634 14 20.2685 14.0381 20.5484 14.1144C20.9408 14.2128 21.2695 14.3997 21.5345 14.6752C21.7994 14.9506 22.0129 15.3368 22.175 15.8336C22.3386 16.3439 22.4215 16.904 22.4173 17.4704C22.4173 18.4907 22.2012 19.3542 21.769 20.0609C21.3367 20.7676 20.5558 21.121 19.4261 21.121H17.3772V25.9995H16.3199V26ZM17.3772 19.7055H19.441C20.124 19.7055 20.6089 19.5144 20.8957 19.1324C21.1825 18.7504 21.3264 18.2129 21.3274 17.5201C21.3274 17.0184 21.2429 16.5886 21.074 16.2308C20.9144 15.8834 20.6778 15.6325 20.4064 15.523C20.2285 15.4517 19.8997 15.4161 19.42 15.4161H17.3772V19.7055ZM23.9428 26V14H25V26H23.9428Z" fill="#FFFDE7"/>
<path d="M21.686 24.301H17.0017C16.8637 24.2984 16.7321 24.2432 16.6354 24.1472C16.5387 24.0512 16.4845 23.9222 16.4845 23.7877C16.4845 23.6533 16.5387 23.5242 16.6354 23.4282C16.7321 23.3323 16.8637 23.277 17.0017 23.2744H21.686C24.0366 23.2744 25.9495 21.4128 25.9495 19.1242C25.9495 17.0347 24.3457 15.2645 22.2189 15.0067L21.8439 14.9611L21.7679 14.6005C21.3311 12.5292 19.4347 11.0267 17.2587 11.0267C14.7204 11.0267 12.6554 13.0369 12.6554 15.5078C12.6554 15.5579 12.6566 15.6113 12.6589 15.6761L12.6805 16.2658L12.0767 16.2047C11.95 16.1919 11.8228 16.1855 11.6955 16.1855C9.68795 16.1855 8.05461 17.7754 8.05461 19.7297C8.05461 21.6839 9.68795 23.2739 11.6955 23.2739H12.9641C13.1022 23.2765 13.2337 23.3317 13.3304 23.4277C13.4271 23.5236 13.4813 23.6527 13.4813 23.7872C13.4813 23.9216 13.4271 24.0507 13.3304 24.1467C13.2337 24.2426 13.1022 24.2979 12.9641 24.3005H11.6955C9.10646 24.301 7.00079 22.2505 7.00079 19.7302C7.00079 17.2374 9.06146 15.2044 11.6116 15.1602C11.6776 14.1477 12.0295 13.1726 12.6286 12.3424C13.2277 11.5122 14.0507 10.8593 15.0068 10.4555C15.963 10.0518 17.0151 9.91292 18.0471 10.0543C19.0792 10.1957 20.0511 10.6118 20.8556 11.2567C21.7542 11.9787 22.4029 12.9522 22.714 14.0452C25.1836 14.516 27.0033 16.6391 27.0033 19.1246C27.0033 20.4974 26.4431 21.814 25.4459 22.7848C24.4487 23.7555 23.0963 24.3009 21.686 24.301Z" fill="#FFFDE7"/>
<path d="M18.2044 26C18.0725 26.0003 17.9453 25.9523 17.8481 25.8655L15.5474 23.8112L17.7253 21.6031C17.823 21.5085 17.9548 21.4549 18.0926 21.4537C18.2304 21.4525 18.3632 21.5038 18.4626 21.5967C18.562 21.6896 18.6201 21.8166 18.6245 21.9507C18.6288 22.0847 18.5792 22.2151 18.4861 22.314L17.0556 23.7645L18.5609 25.1085C18.6391 25.1784 18.6938 25.2697 18.7178 25.3704C18.7419 25.4711 18.7341 25.5765 18.6956 25.6728C18.6571 25.7692 18.5896 25.8519 18.5019 25.9103C18.4143 25.9687 18.3106 25.9999 18.2044 26Z" fill="#FFFDE7"/>
</g>
<defs>
<clipPath id="clip0_616_34">
<rect width="20" height="16" fill="white" transform="translate(7 10)"/>
</clipPath>
</defs>
</svg>
