<svg width="32" height="32" viewBox="0 0 32 32" fill="none" xmlns="http://www.w3.org/2000/svg">
<path d="M19.7695 8.5C18.6425 8.5 17.5678 8.02459 16.8097 7.19069L14.1903 4.30931C13.4322 3.47541 12.3575 3 11.2305 3H2.5C1.67157 3 1 3.67157 1 4.5V5V6V7L1.00005 24.5C1.00005 25.3284 1.67163 26 2.50005 26H27.5C28.3284 26 29 25.3284 29 24.5V10C29 9.17157 28.3284 8.5 27.5 8.5H19.7695ZM14.4879 7.98787C14.6769 8.17686 14.543 8.5 14.2757 8.5H4.3C3.85817 8.5 3.5 8.14183 3.5 7.7V6.3C3.5 5.85817 3.85817 5.5 4.3 5.5H11.1716C11.702 5.5 12.2107 5.71071 12.5858 6.08579L14.4879 7.98787Z" fill="#90A4AE"/>
</svg>
