<svg xmlns="http://www.w3.org/2000/svg" viewBox="0 0 32 32"><path fill="#009688" d="M12.5077 5.6718C11.8506 5.23375 11.0786 5 10.2889 5H1.5C0.671573 5 0 5.67157 0 6.5V25.5C0 26.3284 0.671573 27 1.5 27H26.6459C27.4637 27 28.1992 26.5021 28.5029 25.7428L31.3417 18.6457C31.657 17.8574 31.0765 17 30.2276 17H5.35406C4.53626 17 3.80084 17.4979 3.49711 18.2572L2 22V12C2 11.4477 2.44772 11 3 11H25C25.5523 11 26 11.4477 26 12V17H28V10.5C28 9.67157 27.3284 9 26.5 9H18.7111C17.9214 9 17.1494 8.76625 16.4923 8.3282L12.5077 5.6718ZM13.4504 8.63359C13.615 8.74336 13.5373 9 13.3394 9H2.8C2.35817 9 2 8.64183 2 8.2V7.8C2 7.35817 2.35817 7 2.8 7H10.3944C10.7893 7 11.1753 7.11688 11.5038 7.3359L13.4504 8.63359Z"/><path fill="#b2dfdb" d="M22.999 10A8.994 8.994 0 0 0 14 18.99V19a8.994 8.994 0 0 0 8.988 9H23a8.994 8.994 0 0 0 9-8.988V19a9.017 9.017 0 0 0-9.001-9Zm-4.222 10.931a1.413 1.413 0 0 0 1.242.557 1.921 1.921 0 0 0 .755-.133 6.38 6.38 0 0 0 .817-.425l.916 1.31a3.904 3.904 0 0 1-2.585.916 4.05 4.05 0 0 1-2.028-.49 3.294 3.294 0 0 1-1.31-1.44 5.042 5.042 0 0 1-.457-2.194 5.16 5.16 0 0 1 .456-2.193 3.463 3.463 0 0 1 1.312-1.503 3.614 3.614 0 0 1 1.996-.525 3.74 3.74 0 0 1 1.407.23 4.222 4.222 0 0 1 1.21.72l-.915 1.243a3.589 3.589 0 0 0-.754-.427 2.105 2.105 0 0 0-.785-.131c-1.112 0-1.669.852-1.669 2.585a3.239 3.239 0 0 0 .393 1.899Zm9 2.03a4.714 4.714 0 0 1-1.505 2.323 4.908 4.908 0 0 1-2.75.95l-.228-1.537a3.74 3.74 0 0 0 1.67-.526 4.076 4.076 0 0 0 .391-.391l-2.716-8.707h2.257l1.572 6.513 1.67-6.513h2.193Z"/></svg>