<svg width="32" height="32" viewBox="0 0 32 32" fill="none" xmlns="http://www.w3.org/2000/svg">
<path d="M12.5077 5.6718C11.8506 5.23375 11.0786 5 10.2889 5H1.5C0.671573 5 0 5.67157 0 6.5V25.5C0 26.3284 0.671573 27 1.5 27H26.6459C27.4637 27 28.1992 26.5021 28.5029 25.7428L31.3417 18.6457C31.657 17.8574 31.0765 17 30.2276 17H5.35406C4.53626 17 3.80084 17.4979 3.49711 18.2572L2 22V12C2 11.4477 2.44772 11 3 11H25C25.5523 11 26 11.4477 26 12V17H28V10.5C28 9.67157 27.3284 9 26.5 9H18.7111C17.9214 9 17.1494 8.76625 16.4923 8.3282L12.5077 5.6718ZM13.4504 8.63359C13.615 8.74336 13.5373 9 13.3394 9H2.8C2.35817 9 2 8.64183 2 8.2V7.8C2 7.35817 2.35817 7 2.8 7H10.3944C10.7893 7 11.1753 7.11688 11.5038 7.3359L13.4504 8.63359Z" fill="#F06292"/>
<path d="M21 13.0945L19.5217 14L18 11.9055L19.4774 11L21 13.0945Z" fill="url(#paint0_linear_616_91)"/>
<path d="M22.4634 19.7157L25 23.822L21.9791 26L19.4425 21.8937L19 21.178L22.0209 19L22.4634 19.7157Z" fill="url(#paint1_linear_616_91)"/>
<path d="M18.4929 22.6558L19 23.4829L16.9101 25L16 23.5171L16.4571 23.1858L18.0907 22L18.4929 22.6558Z" fill="url(#paint2_linear_616_91)"/>
<path d="M24.0125 18.3456L24.7923 18L26 19.2045L24.2077 20L23.5341 19.3275L24.5477 18.8776L24.0125 18.3456ZM23.5341 19.3275L23 18.7955L24.0136 18.3456L24.5477 18.8776L23.5341 19.3275Z" fill="url(#paint3_linear_616_91)"/>
<path d="M13.1211 18.6497L12.5967 19L11 16.604L13.4015 15L14.521 16.6791L12.644 17.9328L14.5219 16.6791L15 17.3951L13.1211 18.6497Z" fill="url(#paint4_linear_616_91)"/>
<path d="M18.5417 14.0761L19 14.8167L15.9746 17L15.5164 16.2585L13 12.1824L16.0254 10L18.5417 14.0761Z" fill="url(#paint5_linear_616_91)"/>
<path d="M20.3579 13.488L19.5221 14L19.0666 13.3733L18 11.9053L19.477 11L21 13.0939L20.3579 13.488Z" fill="url(#paint6_linear_616_91)"/>
<path d="M17.3992 24L17 23.2818L18.6249 21.9806L19.0241 22.6997L17.3992 24ZM23.241 19.3247L22.841 18.6074L23.6 18L24 18.7182L23.241 19.3247Z" fill="#673AB7"/>
<path d="M13.4058 18L13 17.273L14.5942 16L15 16.7261L13.4058 18Z" fill="#AB47BC"/>
<path d="M19.5 14L19 13.5L19.6477 13L20.2 13.6L19.5 14Z" fill="#7E57C2"/>
<path d="M23 19.7427L19.5101 22L19 21.2573L22.4888 19L23 19.7427Z" fill="#880E4F"/>
<path d="M18.6054 14L19 14.7613L16 17L15.5 16L18.6054 14Z" fill="#AD1457"/>
<path d="M12.5998 13L13 14.1988L12.4002 15L12 13.8L12.5998 13Z" fill="#AB47BC"/>
<path d="M15.5995 24L16 24.5996L15.3999 25L15 24.3998L15.5995 24Z" fill="#7E57C2"/>
<path d="M13.5022 25L11 21.1386L24.376 12L27 15.8004L13.5022 25Z" fill="url(#paint7_linear_616_91)"/>
<defs>
<linearGradient id="paint0_linear_616_91" x1="9.39234" y1="3.45706" x2="27.8525" y2="20.8497" gradientUnits="userSpaceOnUse">
<stop stop-color="#BA68C8"/>
<stop offset="1" stop-color="#7E57C2"/>
</linearGradient>
<linearGradient id="paint1_linear_616_91" x1="23.477" y1="24.7942" x2="11.4061" y2="10.3004" gradientUnits="userSpaceOnUse">
<stop stop-color="#7E57C2"/>
<stop offset="0.14" stop-color="#7B1FA2"/>
<stop offset="0.29" stop-color="#AD1457"/>
<stop offset="0.84" stop-color="#C2185B"/>
<stop offset="1" stop-color="#EC407A"/>
</linearGradient>
<linearGradient id="paint2_linear_616_91" x1="3.01361" y1="3.84556" x2="20.1821" y2="28.3593" gradientUnits="userSpaceOnUse">
<stop stop-color="#BA68C8"/>
<stop offset="1" stop-color="#7E57C2"/>
</linearGradient>
<linearGradient id="paint3_linear_616_91" x1="1.15621" y1="6.55993" x2="19.0829" y2="29.1951" gradientUnits="userSpaceOnUse">
<stop stop-color="#BA68C8"/>
<stop offset="1" stop-color="#7E57C2"/>
</linearGradient>
<linearGradient id="paint4_linear_616_91" x1="3.09924" y1="8.49859" x2="25.0512" y2="28.3489" gradientUnits="userSpaceOnUse">
<stop stop-color="#BA68C8"/>
<stop offset="1" stop-color="#7E57C2"/>
</linearGradient>
<linearGradient id="paint5_linear_616_91" x1="24.8568" y1="27.2783" x2="12.7322" y2="12.6925" gradientUnits="userSpaceOnUse">
<stop stop-color="#7E57C2"/>
<stop offset="0.14" stop-color="#7B1FA2"/>
<stop offset="0.29" stop-color="#AD1457"/>
<stop offset="0.84" stop-color="#C2185B"/>
<stop offset="1" stop-color="#EC407A"/>
</linearGradient>
<linearGradient id="paint6_linear_616_91" x1="10.1819" y1="2.44667" x2="28.5661" y2="23.3352" gradientUnits="userSpaceOnUse">
<stop stop-color="#BA68C8"/>
<stop offset="1" stop-color="#7E57C2"/>
</linearGradient>
<linearGradient id="paint7_linear_616_91" x1="12.1071" y1="22.9643" x2="25.7302" y2="13.9025" gradientUnits="userSpaceOnUse">
<stop stop-color="#7E57C2"/>
<stop offset="0.14" stop-color="#7B1FA2"/>
<stop offset="0.53" stop-color="#AD1457"/>
<stop offset="0.79" stop-color="#C2185B"/>
<stop offset="1" stop-color="#EC407A"/>
</linearGradient>
</defs>
</svg>
