<svg xmlns="http://www.w3.org/2000/svg" viewBox="0 0 32 32"><path fill="#2196f3" d="M12.5077 5.6718C11.8506 5.23375 11.0786 5 10.2889 5H1.5C0.671573 5 0 5.67157 0 6.5V25.5C0 26.3284 0.671573 27 1.5 27H26.6459C27.4637 27 28.1992 26.5021 28.5029 25.7428L31.3417 18.6457C31.657 17.8574 31.0765 17 30.2276 17H5.35406C4.53626 17 3.80084 17.4979 3.49711 18.2572L2 22V12C2 11.4477 2.44772 11 3 11H25C25.5523 11 26 11.4477 26 12V17H28V10.5C28 9.67157 27.3284 9 26.5 9H18.7111C17.9214 9 17.1494 8.76625 16.4923 8.3282L12.5077 5.6718ZM13.4504 8.63359C13.615 8.74336 13.5373 9 13.3394 9H2.8C2.35817 9 2 8.64183 2 8.2V7.8C2 7.35817 2.35817 7 2.8 7H10.3944C10.7893 7 11.1753 7.11688 11.5038 7.3359L13.4504 8.63359Z"/><path fill="#bbdefb" d="M14.003 14a6.678 6.678 0 0 0 6.335 6.98h1.9a6.619 6.619 0 0 0-6.238 7h1.172A6.36 6.36 0 0 0 23 23.73a6.36 6.36 0 0 0 5.828 4.25H30a6.618 6.618 0 0 0-6.239-7h1.901A6.678 6.678 0 0 0 31.997 14h-3.169A6.34 6.34 0 0 0 23 18.23 6.34 6.34 0 0 0 17.172 14ZM23 18.234a7.697 7.697 0 0 1 0 5.493 7.697 7.697 0 0 1 0-5.493Z"/></svg>