<svg xmlns="http://www.w3.org/2000/svg" viewBox="0 0 32 32"><path fill="#00acc1" d="M12.5077 5.6718C11.8506 5.23375 11.0786 5 10.2889 5H1.5C0.671573 5 0 5.67157 0 6.5V25.5C0 26.3284 0.671573 27 1.5 27H26.6459C27.4637 27 28.1992 26.5021 28.5029 25.7428L31.3417 18.6457C31.657 17.8574 31.0765 17 30.2276 17H5.35406C4.53626 17 3.80084 17.4979 3.49711 18.2572L2 22V12C2 11.4477 2.44772 11 3 11H25C25.5523 11 26 11.4477 26 12V17H28V10.5C28 9.67157 27.3284 9 26.5 9H18.7111C17.9214 9 17.1494 8.76625 16.4923 8.3282L12.5077 5.6718ZM13.4504 8.63359C13.615 8.74336 13.5373 9 13.3394 9H2.8C2.35817 9 2 8.64183 2 8.2V7.8C2 7.35817 2.35817 7 2.8 7H10.3944C10.7893 7 11.1753 7.11688 11.5038 7.3359L13.4504 8.63359Z"/><path fill="#b2ebf2" d="M30.868 15.821a1.809 1.809 0 0 1 .064 2.566q-.031.033-.064.064l-2.642 2.63-7.358-7.325 2.642-2.63a1.83 1.83 0 0 1 2.577-.063q.033.031.064.064l1.698 1.69L30.679 10 32 11.314l-2.83 2.818 1.698 1.69m-5.471 5.445-1.322-1.314-2.64 2.63-1.981-1.974 2.64-2.627-1.32-1.316-2.642 2.63-1.415-1.314-2.64 2.627a1.809 1.809 0 0 0-.064 2.566q.03.033.064.064l1.697 1.69L12 28.683 13.322 30l3.774-3.756 1.697 1.69a1.83 1.83 0 0 0 2.578.063q.033-.031.064-.064l2.64-2.628-1.32-1.315Z"/></svg>