<svg viewBox="0 0 32 32" xmlns="http://www.w3.org/2000/svg"><path d="M12.647 4.05138C11.9092 3.37514 10.9448 3 9.94407 3H1.5C0.671573 3 0 3.67157 0 4.5V8V11V24.5C0 25.3284 0.671573 26 1.5 26H27.5119C28.3952 26 29.1738 25.4207 29.4276 24.5747L31.5366 17.5448C31.7675 16.7749 31.191 16 30.3872 16H5.386C4.55231 16 3.80607 16.5171 3.51334 17.2978L2.5 20V11H14H25.5V15.3H28V10C28 9.17157 27.3284 8.5 26.5 8.5H19.0559C18.0552 8.5 17.0908 8.12486 16.353 7.44862L12.647 4.05138ZM25.5 11L10 10.5L2.5 11V15.5V13.75V13V11H14H25.5ZM12.9879 7.98787C13.1769 8.17686 13.043 8.5 12.7757 8.5H3.3C2.85817 8.5 2.5 8.14183 2.5 7.7V6.3C2.5 5.85817 2.85817 5.5 3.3 5.5H9.67157C10.202 5.5 10.7107 5.71071 11.0858 6.08579L12.9879 7.98787Z" fill="#90a4ae" /></svg>