<svg width="32" height="32" viewBox="0 0 32 32" fill="none" xmlns="http://www.w3.org/2000/svg">
<path d="M18.7111 9C17.9214 9 17.1494 8.76625 16.4923 8.3282L12.5077 5.6718C11.8506 5.23375 11.0786 5 10.2889 5H1.5C0.671575 5 1.7324e-06 5.67158 3.8147e-06 6.5L5.15723e-05 25.5C5.36546e-05 26.3284 0.671626 27 1.50005 27H26.5C27.3284 27 28 26.3284 28 25.5V10.5C28 9.67157 27.3284 9 26.5 9H18.7111ZM13.4504 8.63359C13.615 8.74336 13.5373 9 13.3394 9H2.8C2.35817 9 2 8.64183 2 8.2V7.8C2 7.35817 2.35817 7 2.8 7H10.3944C10.7893 7 11.1753 7.11688 11.5038 7.3359L13.4504 8.63359Z" fill="#FFB300"/>
<path d="M22.7347 16.6545C22.4569 15.2279 21.7531 13.9246 20.7205 12.9245C19.6879 11.9244 18.3774 11.2767 16.9697 11.0708C15.562 10.8649 14.1265 11.1109 12.8613 11.7749C11.5961 12.4389 10.5635 13.4882 9.90594 14.7779C8.50671 14.9338 7.21908 15.6323 6.30801 16.7297C5.39694 17.8272 4.93173 19.2401 5.00811 20.6778C5.08449 22.1155 5.69665 23.4685 6.71862 24.4585C7.7406 25.4486 9.09464 26.0002 10.5021 26H22.4137C23.601 26.0034 24.7432 25.5342 25.5985 24.6918C26.4539 23.8493 26.9555 22.6996 26.9972 21.4857C27.0389 20.2718 26.6174 19.0889 25.822 18.1871C25.0265 17.2853 23.9194 16.7364 22.7347 16.6545Z" fill="#FFECB3"/>
</svg>
