<svg width="32" height="32" viewBox="0 0 32 32" fill="none" xmlns="http://www.w3.org/2000/svg">
<path d="M18.7111 9C17.9214 9 17.1494 8.76625 16.4923 8.3282L12.5077 5.6718C11.8506 5.23375 11.0786 5 10.2889 5H1.5C0.671575 5 1.68804e-06 5.67158 3.77034e-06 6.5L5.15279e-05 25.5C5.36102e-05 26.3284 0.671626 27 1.50005 27H26.5C27.3284 27 28 26.3284 28 25.5V10.5C28 9.67157 27.3284 9 26.5 9H18.7111ZM13.4504 8.63359C13.615 8.74336 13.5373 9 13.3394 9H2.8C2.35817 9 2 8.64183 2 8.2V7.8C2 7.35817 2.35817 7 2.8 7H10.3944C10.7893 7 11.1753 7.11688 11.5038 7.3359L13.4504 8.63359Z" fill="#546E7A"/>
<path d="M19 9L12 12.273V17.181C12 21.723 14.986 25.969 19 27C23.014 25.969 26 21.723 26 17.18V12.273L19 9ZM19 12.273C19.4906 12.2482 19.9774 12.371 20.3975 12.6256C20.8176 12.8803 21.1517 13.2549 21.3567 13.7013C21.5618 14.1477 21.6283 14.6453 21.5477 15.1299C21.4671 15.6145 21.2432 16.0638 20.9047 16.4198C20.5662 16.7758 20.1288 17.0222 19.649 17.1271C19.1691 17.2321 18.6687 17.1908 18.2126 17.0086C17.7564 16.8263 17.3653 16.5116 17.0898 16.1049C16.8143 15.6982 16.667 15.2182 16.667 14.727C16.6514 14.0923 16.8884 13.4774 17.3258 13.0173C17.7632 12.5572 18.3654 12.2895 19 12.273ZM22.99 22.09C22.0714 23.5889 20.6612 24.7227 19 25.298C17.3389 24.7225 15.9288 23.5888 15.01 22.09C14.7496 21.6931 14.5231 21.275 14.333 20.84C14.333 19.488 16.441 18.384 19 18.384C21.559 18.384 23.666 19.464 23.666 20.839C23.4768 21.2745 23.2506 21.6931 22.99 22.09Z" fill="#CFD8DC"/>
</svg>
