<svg width="32" height="32" viewBox="0 0 32 32" fill="none" xmlns="http://www.w3.org/2000/svg">
<path d="M12.5077 5.6718C11.8506 5.23375 11.0786 5 10.2889 5H1.5C0.671573 5 0 5.67157 0 6.5V25.5C0 26.3284 0.671573 27 1.5 27H26.6459C27.4637 27 28.1992 26.5021 28.5029 25.7428L31.3417 18.6457C31.657 17.8574 31.0765 17 30.2276 17H5.35406C4.53626 17 3.80084 17.4979 3.49711 18.2572L2 22V12C2 11.4477 2.44772 11 3 11H25C25.5523 11 26 11.4477 26 12V17H28V10.5C28 9.67157 27.3284 9 26.5 9H18.7111C17.9214 9 17.1494 8.76625 16.4923 8.3282L12.5077 5.6718ZM13.4504 8.63359C13.615 8.74336 13.5373 9 13.3394 9H2.8C2.35817 9 2 8.64183 2 8.2V7.8C2 7.35817 2.35817 7 2.8 7H10.3944C10.7893 7 11.1753 7.11688 11.5038 7.3359L13.4504 8.63359Z" fill="#7C4DFF"/>
<path d="M17 23.6C17 22.9514 17.0763 22.394 18.2187 22.394C18.2187 24.4802 19.625 26 20.75 26C20.75 23.345 23.25 23.5028 23.25 21.2H15.75C15.75 22.22 15.8981 23.345 17 23.6ZM22.5529 10.4923L27 19.6H24.8125C24.0722 19.6 23.3484 19.413 22.7324 19.0626C22.1164 18.7121 21.6357 18.2139 21.351 17.6308L19.9327 14.7261C19.8971 14.6532 19.837 14.591 19.76 14.5472C19.683 14.5034 19.5925 14.48 19.5 14.48C19.4075 14.48 19.317 14.5034 19.24 14.5472C19.163 14.591 19.1029 14.6532 19.0673 14.7261L17.649 17.6308C17.3643 18.2139 16.8836 18.7121 16.2676 19.0626C15.6516 19.413 14.9278 19.6 14.1875 19.6H12L16.4471 10.4923C16.5183 10.3465 16.6385 10.222 16.7925 10.1344C16.9465 10.0467 17.1274 10 17.3125 10H21.6875C21.8726 10 22.0535 10.0467 22.2075 10.1344C22.3615 10.222 22.4817 10.3465 22.5529 10.4923Z" fill="#D1C4E9"/>
</svg>
