<svg width="32" height="32" viewBox="0 0 32 32" fill="none" xmlns="http://www.w3.org/2000/svg">
<path d="M12.5077 4.6718C11.8506 4.23375 11.0786 4 10.2889 4H1.5C0.671573 4 0 4.67157 0 5.5V24.5C0 25.3284 0.671573 26 1.5 26H26.6459C27.4637 26 28.1992 25.5021 28.5029 24.7428L31.3417 17.6457C31.657 16.8574 31.0765 16 30.2276 16H5.35406C4.53626 16 3.80084 16.4979 3.49711 17.2572L2 21V11C2 10.4477 2.44772 10 3 10H25C25.5523 10 26 10.4477 26 11V16H28V9.5C28 8.67157 27.3284 8 26.5 8H18.7111C17.9214 8 17.1494 7.76625 16.4923 7.3282L12.5077 4.6718ZM13.4504 7.63359C13.615 7.74336 13.5373 8 13.3394 8H2.8C2.35817 8 2 7.64183 2 7.2V6.8C2 6.35817 2.35817 6 2.8 6H10.3944C10.7893 6 11.1753 6.11688 11.5038 6.3359L13.4504 7.63359Z" fill="#8BC34A"/>
<path d="M23.6806 15.2526L27 10.616L25.8431 9L22.2979 13.952C20.9786 12.952 19.5014 12.4283 18.0004 12.4283C16.4994 12.4283 15.0222 12.952 13.7029 13.952L10.1569 9L9 10.616L12.3194 15.2526C11.2815 16.4297 10.445 17.9157 9.87071 19.6021C9.29645 21.2884 8.99898 23.1326 9 25H27C27.001 23.1326 26.7036 21.2884 26.1293 19.6021C25.555 17.9157 24.7185 16.4297 23.6806 15.2526ZM15.5455 22.7143H12.2727V18.1429L15.5455 19.1429V22.7143ZM23.7273 22.7143H20.4545V19.1429L23.7273 18.1429V22.7143Z" fill="#DCEDC8"/>
</svg>
